<?xml version="1.0" encoding="UTF-8"?>
<!DOCTYPE svg PUBLIC "-//W3C//DTD SVG 1.1//EN" "http://www.w3.org/Graphics/SVG/1.1/DTD/svg11.dtd">
<!-- Creator: CorelDRAW 2021 (64-Bit) -->
<svg xmlns="http://www.w3.org/2000/svg" xml:space="preserve" width="423.333mm" height="423.333mm" version="1.1" style="shape-rendering:geometricPrecision; text-rendering:geometricPrecision; image-rendering:optimizeQuality; fill-rule:evenodd; clip-rule:evenodd"
viewBox="0 0 39001.43 39001.42"
 xmlns:xlink="http://www.w3.org/1999/xlink"
 xmlns:xodm="http://www.corel.com/coreldraw/odm/2003">
 <defs>
  <style type="text/css">
   <![CDATA[
    .fil14 {fill:none}
    .fil1 {fill:none}
    .fil4 {fill:#00AFEF}
    .fil0 {fill:black}
    .fil7 {fill:#725D1A}
    .fil5 {fill:#927620}
    .fil6 {fill:#D7BA5A}
    .fil10 {fill:#F2C808}
    .fil13 {fill:#033B61;fill-opacity:0.788235}
    .fil11 {fill:url(#id8)}
    .fil2 {fill:url(#id9)}
    .fil3 {fill:url(#id10)}
    .fil12 {fill:url(#id11)}
    .fil8 {fill:url(#id12)}
    .fil9 {fill:url(#id13)}
   ]]>
  </style>
   <clipPath id="id0">
    <path d="M11435.43 12366.63l16130.56 0 0 16130.56 -16130.56 0 0 -16130.56z"/>
   </clipPath>
   <clipPath id="id1">
    <path d="M11435.43 12366.63l16130.56 0 0 16130.56 -16130.56 0 0 -16130.56z"/>
   </clipPath>
     <mask id="id2">
  <linearGradient id="id3" gradientUnits="userSpaceOnUse" x1="24521.45" y1="17390.64" x2="17147.13" y2="22126.44">
   <stop offset="0" style="stop-opacity:1; stop-color:white"/>
   <stop offset="1" style="stop-opacity:0; stop-color:white"/>
  </linearGradient>
      <rect style="fill:url(#id3)" x="11801.93" y="12654.84" width="15742.61" height="13667.95"/>
     </mask>
     <mask id="id4">
  <linearGradient id="id5" gradientUnits="userSpaceOnUse" x1="14262.42" y1="17357.29" x2="21636.74" y2="22093.09">
   <stop offset="0" style="stop-opacity:1; stop-color:white"/>
   <stop offset="1" style="stop-opacity:0; stop-color:white"/>
  </linearGradient>
      <rect style="fill:url(#id5)" x="11239.34" y="12621.5" width="15742.61" height="13667.95"/>
     </mask>
    <clipPath id="id6">
     <path d="M11435.43 12366.63l16130.56 0 0 16130.56 -16130.56 0 0 -16130.56z"/>
    </clipPath>
    <clipPath id="id7">
     <path d="M11435.43 12366.63l16130.56 0 0 16130.56 -16130.56 0 0 -16130.56z"/>
    </clipPath>
  <linearGradient id="id8" gradientUnits="userSpaceOnUse" x1="12680.61" y1="25476.34" x2="22272.35" y2="25784.81">
   <stop offset="0" style="stop-opacity:1; stop-color:#00AFEF"/>
   <stop offset="1" style="stop-opacity:1; stop-color:#033B61"/>
  </linearGradient>
  <linearGradient id="id9" gradientUnits="userSpaceOnUse" xlink:href="#id8" x1="24577.56" y1="19760.71" x2="12476.95" y2="20328.49">
  </linearGradient>
  <linearGradient id="id10" gradientUnits="userSpaceOnUse" xlink:href="#id8" x1="14206.32" y1="19727.36" x2="26306.93" y2="20295.14">
  </linearGradient>
  <linearGradient id="id11" gradientUnits="userSpaceOnUse" xlink:href="#id8" x1="16726.68" y1="26228.51" x2="28835.66" y2="26617.94">
  </linearGradient>
  <linearGradient id="id12" gradientUnits="userSpaceOnUse" xlink:href="#id8" x1="25067.62" y1="20994.92" x2="27438.15" y2="21065.93">
  </linearGradient>
  <linearGradient id="id13" gradientUnits="userSpaceOnUse" xlink:href="#id8" x1="11937.67" y1="21187.96" x2="14308.2" y2="21258.97">
  </linearGradient>
 </defs>
 <g id="Layer_x0020_1">
  <metadata id="CorelCorpID_0Corel-Layer"/>
  <rect class="fil0" x="0" y="-0" width="39001.42" height="39001.42"/>
  <g style="clip-path:url(#id0)">
   <polygon class="fil1" points="11435.43,12366.63 27565.99,12366.63 27565.99,28497.19 11435.43,28497.19 "/>
  </g>
  <g style="clip-path:url(#id1)">
   <g id="_2472847956288">
    <polygon id="_1" class="fil2" style="mask:url(#id2)" points="27544.54,12654.84 11801.93,24054.96 14041.15,26322.79 27544.54,17184.35 "/>
    <polygon class="fil3" style="mask:url(#id4)" points="11239.34,12621.5 26981.95,24021.62 24742.73,26289.45 11239.34,17151 "/>
   </g>
   <g style="clip-path:url(#id6)">
    <image x="3575.85" y="-4651" width="33302.76" height="35536.48" xlink:href="eth_Images\eth_ImgID1.png"/>
   </g>
   <g style="clip-path:url(#id7)">
    <polygon class="fil4" points="10566.12,22614.39 14007.93,25248.51 13712.69,25547.51 10566.12,23211.59 "/>
    <g>
     <polygon class="fil5" points="19460.38,24398.73 22336.95,22728.11 19467.26,26760 "/>
     <polygon class="fil6" points="19459.53,24398.73 16582.96,22728.11 19452.65,26760 "/>
     <polygon class="fil6" points="19472.09,17330.86 19450.95,20815.02 16553.73,22123.14 "/>
     <polygon class="fil5" points="19476.79,17330.14 19450.86,20814.93 22379.11,22138.44 "/>
     <polygon class="fil5" points="16553.73,22130.53 19449.05,20816.91 19443.25,23837.6 "/>
     <polygon class="fil7" points="22378.23,22139.33 19450.95,20816.83 19443.25,23837.6 "/>
    </g>
    <polygon class="fil8" points="27569.22,19477.51 24598.86,21661.4 24487.96,22349.76 27569.22,20062.32 "/>
    <polygon class="fil9" points="11358.01,19670.54 14328.37,21854.43 14439.27,22542.79 11358.01,20255.35 "/>
    <polygon class="fil10" points="11451.57,25392.87 12848.86,24566.55 11451.57,23620.93 "/>
    <polygon class="fil4" points="25126.8,27158.36 24749.6,26935.28 25126.8,26680.01 "/>
    <polygon class="fil10" points="24766.97,28135.14 25603.42,27506.97 24766.97,26942.26 "/>
    <polygon class="fil4" points="12464.56,23004.69 11896.21,23355.81 12472.18,23780.93 "/>
    <polygon class="fil4" points="12150.21,24990.43 11451.57,25403.6 12150.21,25876.4 "/>
    <polygon class="fil11" points="10333.72,19777.02 22803.73,28807.26 21030.01,30603.65 10333.72,23364.92 "/>
    <polygon class="fil12" points="29506.5,19033.47 13763.89,30433.6 16003.12,32701.43 29506.5,23562.98 "/>
    <polygon class="fil4" points="15947.67,27166.87 18819.58,29107.28 18924,29578.03 15971.52,27569.45 "/>
    <polygon class="fil13" points="12335.63,24287.44 17235.36,27294.74 17070.42,28688.27 12041.53,25357.93 "/>
   </g>
  </g>
  <polygon class="fil14" points="11435.43,12366.63 27565.99,12366.63 27565.99,28497.19 11435.43,28497.19 "/>
 </g>
</svg>
